<svg xmlns="http://www.w3.org/2000/svg" xmlns:xlink="http://www.w3.org/1999/xlink" version="1.1" style="" xml:space="preserve" width="86" height="95"><rect id="backgroundrect" width="100%" height="100%" x="0" y="0" fill="none" stroke="none"/><g class="currentLayer" style=""><title>Layer 1</title><path d="M83.95159301757812,41.30003662109374 c0,-0.1 0.1,-0.2 0.1,-0.2 c5.4,-16.1 -3.7,-32.3 -21,-41 c2.8,4.9 3.6,10.6 2.1,16.3 c-1.7000000000000002,6.1 -5.9,11.3 -11.5,15.1 c0.8,-5 -2,-12.5 -5.4,-17.2 c2.9,-0.6000000000000001 7.6,-3.8 8.3,-7.7 c-10.1,6.6 -20.3,-1.7000000000000002 -27.5,9.5 c0.2,0.1 2,0 2.1,0 c6.6,0.4 9,1.9 8.5,5.5 c-0.30000000000000004,2.4 -1.8,4.5 -4.1,6 c-1.3,0.9 -2.9,2.1 -4.2,3.4 c-5.4,-3.7 -9.3,-8.8 -10.9,-14.7 c-1.6,-5.7 -0.7000000000000001,-11.4 2.1,-16.3 c-17.3,8.7 -26.4,24.9 -21,41 c0,0.1 0.1,0.2 0.1,0.2 c1.8,-3.2 4.2,-6.2 7.2,-8.8 c-0.9,2.3 -1.5,4.6 -1.7000000000000002,7.1 c-0.5,5.8 2.5,12.3 5.7,17.2 c0,0 -1.1,-6.9 3.5,-12.1 c-0.1,2.4 0.1,4.8 0.9,7.2 c3.2,9.8 10.7,13.9 12.4,14.5 c-2.2,-4.5 -3.2,-9 -3.2,-13.2 c1,2.2 2.3,4.4 3.9,6.6 c0,0 0.1,0.1 0.1,0.1 c0,0 0,0 0,0.1 c2.8,3.8 3.2,8.4 1.1,12.4 c-5.8,10.7 -11.2,15 -11.2,15 c0.1,0 16.3,1.9 19,-14.2 c-0.4,6.7 0.9,17.7 3.6,21.9 l0,0 c2.7,-4.3 3.8,-15.7 3.6,-22.2 c1,13.4 18.8,14.5 19,14.5 c0,0 -5.4,-4.3 -11.2,-15 c-2.2,-4 -1.7000000000000002,-8.6 1.1,-12.4 c0,0 0,0 0,-0.1 c0,0 0.1,-0.1 0.1,-0.1 c1.6,-2.2 2.9,-4.4 3.9,-6.6 c0,4.2 -1,8.7 -3.2,13.2 c1.6,-0.6000000000000001 9.2,-4.7 12.4,-14.5 c0.8,-2.4 1,-4.8 0.9,-7.2 c4.5,5.1 3.5,12.1 3.5,12.1 c3.2,-4.9 6.2,-11.4 5.7,-17.2 c-0.2,-2.5 -0.8,-4.8 -1.7000000000000002,-7.1 C79.75159301757813,35.10003662109375 82.25159301757813,38.00003662109373 83.95159301757812,41.30003662109374 z" id="svg_1" class=""/></g></svg>